# xmcd
# 
# Track frame offsets:
#     150
#     15854
#     29944
#     51707
#     72257
#     89669
#     106045
#     123818
#     148212
#     172980
# 
# Disc length: 2440
# 
# Revision: 0
# Processed by: cddbd v1.5.2PL0 Copyright (c) Steve Scherf et al.
# Submitted via: BonkEnc v1.0.5
# 
DISCID=8b09860a
DTITLE=Duke Robillard - You Got Me
DYEAR=1988
DGENRE=Blues
TTITLE0=Stop Knockin'
TTITLE1=Who'll Be There
TTITLE2=Judgement Day
TTITLE3=You Got Me
TTITLE4=You Can't Be The One For Me
TTITLE5=Don't Bother Trying To Steal Her Love
TTITLE6=Don't Treat Me Like That
TTITLE7=You're The One I Adore
TTITLE8=Don't Come Back
TTITLE9=Do What You Did
EXTD=
EXTT0=
EXTT1=
EXTT2=
EXTT3=
EXTT4=
EXTT5=
EXTT6=
EXTT7=
EXTT8=
EXTT9=
PLAYORDER=
